# xmcd CD database file
#
# Track frame offsets:
#	150
#	24535
#	45684
#	78847
#	95413
#	117749
#	131332
#	150091
#	169980
#	187385
#	203087
#	217467
#	237301
#	253511
#	276380
#	295358
#	307655
#
# Disc length: 4532 seconds
#
# Revision: 4
# Processed by: cddbd v1.5.2PL0 Copyright (c) Steve Scherf et al.
# Submitted via: CDex 1.70beta2
#
DISCID=f911b211
DTITLE=ERIC CLAPTON - Gold Blues and Ballads Of Eric Clapton 1968-1998
DYEAR=1998
DGENRE=Blues Rock
TTITLE0=My Father's Eyes
TTITLE1=Born In Time
TTITLE2=River Of Tears
TTITLE3=Wonderful Tonight
TTITLE4=Lef It Grow
TTITLE5=Promises
TTITLE6=I Can't Stand It
TTITLE7=Knockin'on Heavens Door
TTITLE8=Lay Down Sally
TTITLE9=Sweet Low Sweet Chariot
TTITLE10=After Midnight
TTITLE11=I Shot The Sheriff
TTITLE12=Cocaine
TTITLE13=Bell Bottom Blues
TTITLE14=Sunshine Of Your Love
TTITLE15=Badge
TTITLE16=Layla
EXTD=YEAR: 1998
EXTT0=
EXTT1=
EXTT2=
EXTT3=
EXTT4=
EXTT5=
EXTT6=
EXTT7=
EXTT8=
EXTT9=
EXTT10=
EXTT11=
EXTT12=
EXTT13=
EXTT14=
EXTT15=
EXTT16=
PLAYORDER=
